# xmcd
#
# Track frame offsets:
#	150
#	17649
#	39427
#	54604
#	70663
#	89322
#	107379
#	130597
#	154495
#	176714
#	194372
#	214601
#	233394
#	251098
#	266398
#	290203
#
# Disc length: 4135 seconds
#
# Revision: 2
# Processed by: cddbd v1.4PL0 Copyright (c) Steve Scherf et al.
# Submitted via: EasyCDDAExtractor 5.0.6
#
DISCID=da102510
DTITLE=莫文蔚 - [i]
DYEAR=1900
DGENRE=Blues
TTITLE0=I will be Fine
TTITLE1=单人房 双人床
TTITLE2=爱
TTITLE3=那可不一定
TTITLE4=女朋友的男朋友
TTITLE5=原罪
TTITLE6=你给我多少时间
TTITLE7=Alive（我的自由式）
TTITLE8=左岸 右转
TTITLE9=如果你是李白
TTITLE10=Close to You
TTITLE11=盛夏的果实
TTITLE12=阴天
TTITLE13=爱上你
TTITLE14=我爱你
TTITLE15=好好爱自己
EXTD=
EXTT0=
EXTT1=
EXTT2=
EXTT3=
EXTT4=
EXTT5=
EXTT6=
EXTT7=
EXTT8=
EXTT9=
EXTT10=
EXTT11=
EXTT12=
EXTT13=
EXTT14=
EXTT15=
PLAYORDER=
